<svg width="14" height="14" viewBox="0 0 14 14" fill="none" xmlns="http://www.w3.org/2000/svg">
<path fill-rule="evenodd" clip-rule="evenodd" d="M8.31081 7L13.2291 2.08167C13.5866 1.72417 13.5866 1.12833 13.2291 0.770834C13.0543 0.598945 12.8189 0.502625 12.5737 0.502625C12.3285 0.502625 12.0932 0.598945 11.9183 0.770834L6.99998 5.68917L2.08164 0.770834C1.90679 0.598945 1.67142 0.502625 1.42623 0.502625C1.18104 0.502625 0.94566 0.598945 0.770811 0.770834C0.413311 1.12833 0.413311 1.72417 0.770811 2.08167L5.68914 7L0.770811 11.9183C0.413311 12.2758 0.413311 12.8717 0.770811 13.2292C1.12831 13.5867 1.72414 13.5867 2.08164 13.2292L6.99998 8.31083L11.9183 13.2292C12.2758 13.5867 12.8716 13.5867 13.2291 13.2292C13.5866 12.8717 13.5866 12.2758 13.2291 11.9183L8.31081 7Z" fill="#918EA0"/>
</svg>
