<svg width="32" height="30" viewBox="0 0 32 30" fill="none" xmlns="http://www.w3.org/2000/svg">
<path d="M28 5.60001H22.4V2.85001C22.4 1.40001 21.2 0.200012 19.75 0.200012H12.2C10.75 0.200012 9.54997 1.40001 9.54997 2.85001V5.60001H3.99998C2.29998 5.60001 0.849976 7.00001 0.849976 8.75001V26.65C0.849976 28.35 2.24998 29.8 3.99998 29.8H28C29.7 29.8 31.15 28.4 31.15 26.65V8.75001C31.1 7.00001 29.7 5.60001 28 5.60001ZM11.85 2.85001C11.85 2.65001 12 2.50001 12.2 2.50001H19.75C19.95 2.50001 20.15 2.65001 20.15 2.90001V5.65001H11.85V2.85001ZM28.85 26.65C28.85 27.15 28.45 27.55 27.95 27.55H3.99998C3.49998 27.55 3.09998 27.15 3.09998 26.65V8.75001C3.09998 8.25001 3.49998 7.85001 3.99998 7.85001H28C28.5 7.85001 28.9 8.25001 28.9 8.75001V26.65H28.85Z" fill="url(#paint0_linear_662_81)"/>
<defs>
<linearGradient id="paint0_linear_662_81" x1="16" y1="0.200012" x2="16" y2="36.0625" gradientUnits="userSpaceOnUse">
<stop stop-color="white"/>
<stop offset="0.744792" stop-color="white" stop-opacity="0.364583"/>
<stop offset="1" stop-color="white" stop-opacity="0"/>
</linearGradient>
</defs>
</svg>
