<svg width="32" height="32" viewBox="0 0 32 32" fill="none" xmlns="http://www.w3.org/2000/svg">
<path d="M31.1 5.94997C31.1 5.54997 30.95 5.14997 30.65 4.84997C30.05 4.24997 29.45 3.64997 28.9 3.04997C28.35 2.49997 27.85 1.94997 27.3 1.44997C27.05 1.14997 26.75 0.949973 26.35 0.899973C25.9 0.849973 25.5 0.949973 25.15 1.24997L21.75 4.64997H4.05002C2.35002 4.64997 0.900024 6.04997 0.900024 7.79997V28C0.900024 29.7 2.30002 31.15 4.05002 31.15H24.3C26 31.15 27.45 29.75 27.45 28V10.25L30.7 6.99997C30.95 6.69997 31.1 6.34997 31.1 5.94997ZM16.4 18C16.35 18.05 16.35 18.05 16.3 18.05L12.7 19.25L13.9 15.65C13.9 15.6 13.95 15.6 13.95 15.55L22.95 6.54997L25.45 8.99997L16.4 18ZM25.15 28C25.15 28.5 24.75 28.9 24.25 28.9H4.05002C3.55002 28.9 3.15002 28.5 3.15002 28V7.74997C3.15002 7.24997 3.55002 6.84997 4.05002 6.84997H19.45L12.35 14C12.1 14.25 11.85 14.6 11.75 15L9.90003 20.6C9.75003 21 9.85003 21.35 10.05 21.7C10.2 21.9 10.5 22.2 11.05 22.2H11.25L17 20.3C17.35 20.2 17.7 19.95 17.95 19.7L25.15 12.5V28ZM27 7.44997L24.5 4.99997L26.05 3.44997C26.45 3.84997 28.1 5.49997 28.5 5.94997L27 7.44997Z" fill="url(#paint0_linear_662_482)"/>
<defs>
<linearGradient id="paint0_linear_662_482" x1="16" y1="0.887695" x2="16" y2="37.5526" gradientUnits="userSpaceOnUse">
<stop stop-color="white"/>
<stop offset="0.744792" stop-color="white" stop-opacity="0.364583"/>
<stop offset="1" stop-color="white" stop-opacity="0"/>
</linearGradient>
</defs>
</svg>
