<svg width="22" height="22" viewBox="0 0 22 22" fill="none" xmlns="http://www.w3.org/2000/svg">
<path d="M11 0.618774C5.2594 0.618774 0.618774 5.2594 0.618774 11C0.618774 16.7406 5.2594 21.4156 11 21.4156C16.7406 21.4156 21.4156 16.7406 21.4156 11C21.4156 5.2594 16.7406 0.618774 11 0.618774ZM11 19.8688C6.11877 19.8688 2.16565 15.8813 2.16565 11C2.16565 6.11877 6.11877 2.16565 11 2.16565C15.8813 2.16565 19.8688 6.15315 19.8688 11.0344C19.8688 15.8813 15.8813 19.8688 11 19.8688Z" fill="url(#paint0_linear_653_869)"/>
<path d="M12.375 9.35004H9.62504C9.21254 9.35004 8.83441 9.69379 8.83441 10.1407V17.0157C8.83441 17.4282 9.17816 17.8063 9.62504 17.8063H12.375C12.7875 17.8063 13.1657 17.4625 13.1657 17.0157V10.1407C13.1657 9.69379 12.7875 9.35004 12.375 9.35004ZM11.6188 16.225H10.4157V10.8969H11.6188V16.225Z" fill="url(#paint1_linear_653_869)"/>
<path d="M11 4.22815C9.83129 4.22815 8.83441 5.19065 8.83441 6.39377C8.83441 7.5969 9.79691 8.5594 11 8.5594C12.2032 8.5594 13.1657 7.5969 13.1657 6.39377C13.1657 5.19065 12.1688 4.22815 11 4.22815ZM11 6.97815C10.6563 6.97815 10.3813 6.70315 10.3813 6.3594C10.3813 6.01565 10.6563 5.74065 11 5.74065C11.3438 5.74065 11.6188 6.01565 11.6188 6.3594C11.6188 6.70315 11.3438 6.97815 11 6.97815Z" fill="url(#paint2_linear_653_869)"/>
<defs>
<linearGradient id="paint0_linear_653_869" x1="11.0172" y1="0.618774" x2="11.0172" y2="25.8157" gradientUnits="userSpaceOnUse">
<stop stop-color="white"/>
<stop offset="0.744792" stop-color="white" stop-opacity="0.364583"/>
<stop offset="1" stop-color="white" stop-opacity="0"/>
</linearGradient>
<linearGradient id="paint1_linear_653_869" x1="11" y1="9.35004" x2="11" y2="19.5954" gradientUnits="userSpaceOnUse">
<stop stop-color="white"/>
<stop offset="0.744792" stop-color="white" stop-opacity="0.364583"/>
<stop offset="1" stop-color="white" stop-opacity="0"/>
</linearGradient>
<linearGradient id="paint2_linear_653_869" x1="11" y1="4.22815" x2="11" y2="9.47576" gradientUnits="userSpaceOnUse">
<stop stop-color="white"/>
<stop offset="0.744792" stop-color="white" stop-opacity="0.364583"/>
<stop offset="1" stop-color="white" stop-opacity="0"/>
</linearGradient>
</defs>
</svg>
