<svg width="556" height="401" viewBox="0 0 556 401" fill="none" xmlns="http://www.w3.org/2000/svg">
<rect y="277" width="556" height="123" fill="#030014"/>
<rect width="556" height="393" rx="20" fill="url(#paint0_linear_117_13337)" fill-opacity="0.03"/>
<rect x="0.5" y="0.5" width="555" height="392" rx="19.5" stroke="url(#paint1_linear_117_13337)" stroke-opacity="0.08"/>
<rect x="10" y="10" width="536" height="391" rx="12" fill="url(#paint2_linear_117_13337)" fill-opacity="0.04"/>
<rect x="10.5" y="10.5" width="535" height="390" rx="11.5" stroke="url(#paint3_linear_117_13337)" stroke-opacity="0.12"/>
<line x1="198.5" y1="10" x2="198.5" y2="401" stroke="url(#paint4_linear_117_13337)" stroke-opacity="0.12"/>
<circle cx="34" cy="36" r="4" fill="white" fill-opacity="0.2"/>
<circle cx="48" cy="36" r="4" fill="white" fill-opacity="0.2"/>
<circle cx="62" cy="36" r="4" fill="white" fill-opacity="0.2"/>
<rect x="30" y="84" width="144" height="30" rx="8" fill="white" fill-opacity="0.1"/>
<rect x="231" y="66" width="87.5351" height="8" rx="4" fill="white" fill-opacity="0.1"/>
<rect x="231" y="84" width="70.0281" height="8" rx="4" fill="white" fill-opacity="0.1"/>
<rect x="231" y="102" width="54.1623" height="8" rx="4" fill="white" fill-opacity="0.1"/>
<rect x="324.006" y="66" width="38.8437" height="8" rx="4" fill="white" fill-opacity="0.1"/>
<rect x="305.405" y="84" width="31.1844" height="8" rx="4" fill="white" fill-opacity="0.1"/>
<rect x="288.445" y="102" width="24.6192" height="8" rx="4" fill="white" fill-opacity="0.1"/>
<rect x="368.32" y="66" width="60.1804" height="8" rx="4" fill="white" fill-opacity="0.1"/>
<rect x="340.966" y="84" width="48.1443" height="8" rx="4" fill="white" fill-opacity="0.1"/>
<rect x="316.347" y="102" width="37.2024" height="8" rx="4" fill="white" fill-opacity="0.1"/>
<rect x="433.972" y="66" width="21.8838" height="8" rx="4" fill="white" fill-opacity="0.1"/>
<rect x="393.487" y="84" width="17.507" height="8" rx="4" fill="white" fill-opacity="0.1"/>
<rect x="356.832" y="102" width="13.6774" height="8" rx="4" fill="white" fill-opacity="0.1"/>
<rect x="461.326" y="66" width="42.6733" height="8" rx="4" fill="white" fill-opacity="0.1"/>
<rect x="415.371" y="84" width="34.4669" height="8" rx="4" fill="white" fill-opacity="0.1"/>
<rect x="373.792" y="102" width="26.8076" height="8" rx="4" fill="white" fill-opacity="0.1"/>
<rect x="231" y="135" width="87.5351" height="8" rx="4" fill="white" fill-opacity="0.07"/>
<rect x="231" y="153" width="70.0281" height="8" rx="4" fill="white" fill-opacity="0.07"/>
<rect x="324.006" y="135" width="38.8437" height="8" rx="4" fill="white" fill-opacity="0.07"/>
<rect x="305.405" y="153" width="38.2966" height="8" rx="4" fill="white" fill-opacity="0.07"/>
<rect x="368.32" y="135" width="43.2204" height="8" rx="4" fill="white" fill-opacity="0.07"/>
<rect x="349.172" y="153" width="59.0862" height="8" rx="4" fill="white" fill-opacity="0.07"/>
<rect x="415.918" y="135" width="15.3186" height="8" rx="4" fill="white" fill-opacity="0.07"/>
<rect x="413.729" y="153" width="21.8838" height="8" rx="4" fill="white" fill-opacity="0.07"/>
<rect x="435.613" y="135" width="30.6373" height="8" rx="4" fill="white" fill-opacity="0.07"/>
<rect x="440.537" y="153" width="42.6733" height="8" rx="4" fill="white" fill-opacity="0.07"/>
<rect x="231" y="186" width="87.5351" height="8" rx="4" fill="white" fill-opacity="0.03"/>
<rect x="231" y="204" width="70.0281" height="8" rx="4" fill="white" fill-opacity="0.03"/>
<rect x="324.006" y="186" width="38.8437" height="8" rx="4" fill="white" fill-opacity="0.03"/>
<rect x="305.405" y="204" width="31.1844" height="8" rx="4" fill="white" fill-opacity="0.03"/>
<rect x="368.32" y="186" width="60.1804" height="8" rx="4" fill="white" fill-opacity="0.03"/>
<rect x="340.966" y="204" width="48.1443" height="8" rx="4" fill="white" fill-opacity="0.03"/>
<rect x="433.972" y="186" width="21.8838" height="8" rx="4" fill="white" fill-opacity="0.03"/>
<rect x="393.487" y="204" width="17.507" height="8" rx="4" fill="white" fill-opacity="0.03"/>
<rect x="461.326" y="186" width="42.6733" height="8" rx="4" fill="white" fill-opacity="0.03"/>
<rect x="415.371" y="204" width="34.4669" height="8" rx="4" fill="white" fill-opacity="0.03"/>
<rect x="231" y="237" width="87.5351" height="8" rx="4" fill="white" fill-opacity="0.01"/>
<rect x="231" y="255" width="70.0281" height="8" rx="4" fill="white" fill-opacity="0.01"/>
<rect x="324.006" y="237" width="38.8437" height="8" rx="4" fill="white" fill-opacity="0.01"/>
<rect x="305.405" y="255" width="31.1844" height="8" rx="4" fill="white" fill-opacity="0.01"/>
<rect x="368.32" y="237" width="60.1804" height="8" rx="4" fill="white" fill-opacity="0.01"/>
<rect x="340.966" y="255" width="48.1443" height="8" rx="4" fill="white" fill-opacity="0.01"/>
<rect x="433.972" y="237" width="21.8838" height="8" rx="4" fill="white" fill-opacity="0.01"/>
<rect x="393.487" y="255" width="17.507" height="8" rx="4" fill="white" fill-opacity="0.01"/>
<rect x="461.326" y="237" width="42.6733" height="8" rx="4" fill="white" fill-opacity="0.01"/>
<rect x="415.371" y="255" width="34.4669" height="8" rx="4" fill="white" fill-opacity="0.01"/>
<rect x="30" y="126" width="144" height="30" rx="8" fill="white" fill-opacity="0.08"/>
<rect x="30" y="168" width="144" height="30" rx="8" fill="white" fill-opacity="0.06"/>
<rect x="30" y="210" width="144" height="30" rx="8" fill="white" fill-opacity="0.04"/>
<rect x="30" y="252" width="144" height="30" rx="8" fill="white" fill-opacity="0.02"/>
<rect x="30" y="294" width="144" height="30" rx="8" fill="white" fill-opacity="0.01"/>
<rect x="30" y="336" width="144" height="30" rx="8" fill="url(#paint5_linear_117_13337)" fill-opacity="0.01"/>
<line x1="10" y1="59.5" x2="198" y2="59.5" stroke="white" stroke-opacity="0.12"/>
<line x1="4.37114e-08" y1="399.5" x2="556" y2="399.5" stroke="url(#paint6_linear_117_13337)" stroke-opacity="0.8"/>
<defs>
<linearGradient id="paint0_linear_117_13337" x1="278" y1="0" x2="278" y2="393" gradientUnits="userSpaceOnUse">
<stop stop-color="white"/>
<stop offset="1" stop-color="white" stop-opacity="0"/>
</linearGradient>
<linearGradient id="paint1_linear_117_13337" x1="278" y1="0" x2="278" y2="411.5" gradientUnits="userSpaceOnUse">
<stop stop-color="white"/>
<stop offset="1" stop-color="white" stop-opacity="0"/>
</linearGradient>
<linearGradient id="paint2_linear_117_13337" x1="278" y1="10" x2="278" y2="401" gradientUnits="userSpaceOnUse">
<stop stop-color="white"/>
<stop offset="1" stop-color="white" stop-opacity="0"/>
</linearGradient>
<linearGradient id="paint3_linear_117_13337" x1="278" y1="10" x2="278" y2="401" gradientUnits="userSpaceOnUse">
<stop stop-color="white"/>
<stop offset="1" stop-color="white" stop-opacity="0"/>
</linearGradient>
<linearGradient id="paint4_linear_117_13337" x1="198" y1="401" x2="198" y2="10" gradientUnits="userSpaceOnUse">
<stop stop-color="white" stop-opacity="0"/>
<stop offset="0.703125" stop-color="white"/>
</linearGradient>
<linearGradient id="paint5_linear_117_13337" x1="102" y1="336" x2="102" y2="366" gradientUnits="userSpaceOnUse">
<stop stop-color="white"/>
<stop offset="1" stop-color="white" stop-opacity="0"/>
</linearGradient>
<linearGradient id="paint6_linear_117_13337" x1="556" y1="400" x2="0" y2="400" gradientUnits="userSpaceOnUse">
<stop stop-color="white" stop-opacity="0"/>
<stop offset="0.536458" stop-color="white" stop-opacity="0.2"/>
<stop offset="1" stop-color="white" stop-opacity="0"/>
</linearGradient>
</defs>
</svg>
