<svg width="181" height="38" viewBox="0 0 181 38" fill="none" xmlns="http://www.w3.org/2000/svg">
<path d="M0.179688 0.53125H10.7734V13.2578C11.6172 12.8516 12.4844 12.5391 13.375 12.3203C14.2656 12.1016 15.1797 11.9922 16.1172 11.9922C17.9141 11.9922 19.5781 12.3281 21.1094 13C22.6406 13.6719 23.9609 14.5859 25.0703 15.7422C26.1797 16.8984 27.0469 18.25 27.6719 19.7969C28.3125 21.3438 28.6328 22.9844 28.6328 24.7188C28.6328 26.4688 28.3203 28.1172 27.6953 29.6641C27.0859 31.2109 26.2266 32.5625 25.1172 33.7188C24.0078 34.8594 22.6875 35.7656 21.1562 36.4375C19.625 37.0938 17.9453 37.4219 16.1172 37.4219C15.1328 37.4219 14.1953 37.3281 13.3047 37.1406C12.4141 36.9531 11.5703 36.6875 10.7734 36.3438V37H3.57812V6.95312H0.179688V0.53125ZM15.625 18.4609C14.5938 18.4609 13.6641 18.6953 12.8359 19.1641C12.0234 19.6328 11.3359 20.3047 10.7734 21.1797V28.4453C11.2734 29.1953 11.9375 29.8047 12.7656 30.2734C13.6094 30.7266 14.5469 30.9531 15.5781 30.9531C16.375 30.9531 17.1328 30.8125 17.8516 30.5312C18.5703 30.2344 19.1953 29.8203 19.7266 29.2891C20.2734 28.7422 20.7031 28.0938 21.0156 27.3438C21.3281 26.5781 21.4844 25.7188 21.4844 24.7656C21.4844 23.7969 21.3281 22.9219 21.0156 22.1406C20.7031 21.3594 20.2812 20.6953 19.75 20.1484C19.2188 19.6016 18.5938 19.1875 17.875 18.9062C17.1719 18.6094 16.4219 18.4609 15.625 18.4609Z" fill="#03BF62"/>
<path d="M31.4453 0.53125H42.3906V14.9688C43.3125 14.125 44.3203 13.4688 45.4141 13C46.5234 12.5156 47.7422 12.2734 49.0703 12.2734C51.9922 12.2734 54.2266 13.0938 55.7734 14.7344C57.3203 16.3594 58.0938 18.7422 58.0938 21.8828V30.5781H61.6562V37H50.8047V23.5234C50.8047 22.1641 50.4688 21.0938 49.7969 20.3125C49.125 19.5312 48.2578 19.1406 47.1953 19.1406C46.4922 19.1406 45.7266 19.3359 44.8984 19.7266C44.0703 20.1172 43.2344 20.6875 42.3906 21.4375V30.5781H45.9531V37H31.4453V30.5781H35.1953V6.95312H31.4453V0.53125ZM79.2109 34.75C78.2891 35.6094 77.2656 36.3125 76.1406 36.8594C75.0312 37.4062 73.7656 37.6797 72.3438 37.6797C71.1562 37.6797 70.0625 37.4922 69.0625 37.1172C68.0781 36.7422 67.2266 36.2344 66.5078 35.5938C65.7891 34.9375 65.2266 34.1797 64.8203 33.3203C64.4297 32.4609 64.2344 31.5469 64.2344 30.5781C64.2344 29.5469 64.3828 28.6328 64.6797 27.8359C64.9922 27.0391 65.3984 26.3516 65.8984 25.7734C66.4141 25.1797 67.0078 24.6875 67.6797 24.2969C68.3672 23.8906 69.0781 23.5703 69.8125 23.3359C70.5625 23.0859 71.3203 22.9141 72.0859 22.8203C72.8672 22.7109 73.6094 22.6562 74.3125 22.6562C75.4375 22.6562 76.3828 22.6953 77.1484 22.7734C77.9141 22.8359 78.6094 22.9297 79.2344 23.0547L79.2578 21.0625C79.2578 20.2031 79.1328 19.4609 78.8828 18.8359C78.6328 18.1953 78.2812 17.6719 77.8281 17.2656C77.375 16.8438 76.8281 16.5312 76.1875 16.3281C75.5625 16.125 74.8594 16.0234 74.0781 16.0234C73.3438 16.0234 72.6406 16.0781 71.9688 16.1875C71.2969 16.2812 70.6641 16.4141 70.0703 16.5859C69.4922 16.7422 68.9531 16.9297 68.4531 17.1484C67.9688 17.3516 67.5547 17.5703 67.2109 17.8047L65.7812 14.7812C66.3594 14.4062 66.9922 14.0625 67.6797 13.75C68.3672 13.4219 69.0859 13.1484 69.8359 12.9297C70.6016 12.6953 71.375 12.5156 72.1562 12.3906C72.9531 12.25 73.7344 12.1797 74.5 12.1797C75.9062 12.1797 77.1719 12.3516 78.2969 12.6953C79.4219 13.0234 80.375 13.5391 81.1562 14.2422C81.9375 14.9453 82.5391 15.8438 82.9609 16.9375C83.3828 18.0156 83.5938 19.3125 83.5938 20.8281L83.5703 32.9688H86.2656V37H79.2109V34.75ZM73.3047 34.0234C73.8828 34.0234 74.4609 33.9531 75.0391 33.8125C75.6172 33.6719 76.1641 33.4844 76.6797 33.25C77.1953 33 77.6719 32.7188 78.1094 32.4062C78.5469 32.0781 78.9141 31.7422 79.2109 31.3984L79.2344 25.9141H74.1719C73.3281 25.9141 72.5547 26.0078 71.8516 26.1953C71.1641 26.3828 70.5625 26.6562 70.0469 27.0156C69.5469 27.375 69.1562 27.8203 68.875 28.3516C68.5938 28.8828 68.4531 29.4922 68.4531 30.1797C68.4531 30.8203 68.5703 31.3828 68.8047 31.8672C69.0391 32.3359 69.3672 32.7344 69.7891 33.0625C70.2266 33.375 70.7422 33.6172 71.3359 33.7891C71.9297 33.9453 72.5859 34.0234 73.3047 34.0234ZM108.648 17.8516H104.195V16.3516C103.68 16.3516 103.148 16.4531 102.602 16.6562C102.07 16.8438 101.57 17.1406 101.102 17.5469C100.633 17.9375 100.219 18.4453 99.8594 19.0703C99.5156 19.6797 99.2656 20.4062 99.1094 21.25V32.9688H103.234V37H91.1875V32.9688H94.5391L94.5625 16.75H91.1875V12.7188H98.9453V16.0703C99.2266 15.5703 99.5391 15.1094 99.8828 14.6875C100.242 14.25 100.633 13.875 101.055 13.5625C101.492 13.2344 101.969 12.9844 102.484 12.8125C103.016 12.625 103.586 12.5312 104.195 12.5312C105.008 12.5312 105.773 12.5312 106.492 12.5312C107.211 12.5312 107.93 12.5469 108.648 12.5781V17.8516ZM120.719 12.7188H126.414V16.2578H120.672L120.602 30.2734C120.602 31.2266 120.711 32 120.93 32.5938C121.148 33.1875 121.5 33.6016 121.984 33.8359C122.469 34.0547 123.016 34.1641 123.625 34.1641C124.281 34.1641 124.859 34.1094 125.359 34C125.859 33.875 126.406 33.6719 127 33.3906L128.008 36.3203C127.258 36.7109 126.469 37.0156 125.641 37.2344C124.812 37.4688 123.836 37.5859 122.711 37.5859C121.648 37.5859 120.719 37.4531 119.922 37.1875C119.141 36.9375 118.477 36.5078 117.93 35.8984C117.398 35.2891 117 34.4766 116.734 33.4609C116.469 32.4297 116.336 31.1484 116.336 29.6172L116.406 16.2578H112.539V12.7188H116.453V6.90625L120.719 4.89062V12.7188ZM135.672 25.4219C135.672 26.1094 135.719 26.7422 135.812 27.3203C135.922 27.8828 136.07 28.4219 136.258 28.9375C136.836 30.5 137.758 31.6797 139.023 32.4766C140.305 33.2578 141.75 33.6484 143.359 33.6484C144.625 33.6484 145.852 33.4766 147.039 33.1328C148.242 32.7734 149.5 32.2188 150.812 31.4688L152.57 34.4453C150.977 35.5391 149.375 36.3516 147.766 36.8828C146.156 37.4141 144.484 37.6797 142.75 37.6797C141.109 37.6797 139.586 37.4062 138.18 36.8594C136.789 36.3125 135.586 35.5 134.57 34.4219C133.57 33.3438 132.781 32 132.203 30.3906C131.641 28.7812 131.359 26.9062 131.359 24.7656C131.359 23.0312 131.602 21.3984 132.086 19.8672C132.57 18.3203 133.289 16.9766 134.242 15.8359C135.211 14.6797 136.406 13.7656 137.828 13.0938C139.25 12.4219 140.906 12.0859 142.797 12.0859C144.625 12.0859 146.148 12.3672 147.367 12.9297C148.602 13.4766 149.602 14.2109 150.367 15.1328C151.148 16.0391 151.734 17.0781 152.125 18.25C152.531 19.4219 152.812 20.6172 152.969 21.8359C153.047 22.4297 153.094 23.0312 153.109 23.6406C153.141 24.25 153.156 24.8438 153.156 25.4219H135.672ZM142.492 15.7422C141.477 15.7422 140.586 15.8906 139.82 16.1875C139.07 16.4688 138.43 16.8828 137.898 17.4297C137.367 17.9609 136.938 18.6172 136.609 19.3984C136.297 20.1797 136.062 21.0547 135.906 22.0234H148.492C148.43 21.1172 148.281 20.2812 148.047 19.5156C147.828 18.75 147.484 18.0859 147.016 17.5234C146.547 16.9609 145.945 16.5234 145.211 16.2109C144.477 15.8984 143.57 15.7422 142.492 15.7422ZM163.234 25.4219C163.234 26.1094 163.281 26.7422 163.375 27.3203C163.484 27.8828 163.633 28.4219 163.82 28.9375C164.398 30.5 165.32 31.6797 166.586 32.4766C167.867 33.2578 169.312 33.6484 170.922 33.6484C172.188 33.6484 173.414 33.4766 174.602 33.1328C175.805 32.7734 177.062 32.2188 178.375 31.4688L180.133 34.4453C178.539 35.5391 176.938 36.3516 175.328 36.8828C173.719 37.4141 172.047 37.6797 170.312 37.6797C168.672 37.6797 167.148 37.4062 165.742 36.8594C164.352 36.3125 163.148 35.5 162.133 34.4219C161.133 33.3438 160.344 32 159.766 30.3906C159.203 28.7812 158.922 26.9062 158.922 24.7656C158.922 23.0312 159.164 21.3984 159.648 19.8672C160.133 18.3203 160.852 16.9766 161.805 15.8359C162.773 14.6797 163.969 13.7656 165.391 13.0938C166.812 12.4219 168.469 12.0859 170.359 12.0859C172.188 12.0859 173.711 12.3672 174.93 12.9297C176.164 13.4766 177.164 14.2109 177.93 15.1328C178.711 16.0391 179.297 17.0781 179.688 18.25C180.094 19.4219 180.375 20.6172 180.531 21.8359C180.609 22.4297 180.656 23.0312 180.672 23.6406C180.703 24.25 180.719 24.8438 180.719 25.4219H163.234ZM170.055 15.7422C169.039 15.7422 168.148 15.8906 167.383 16.1875C166.633 16.4688 165.992 16.8828 165.461 17.4297C164.93 17.9609 164.5 18.6172 164.172 19.3984C163.859 20.1797 163.625 21.0547 163.469 22.0234H176.055C175.992 21.1172 175.844 20.2812 175.609 19.5156C175.391 18.75 175.047 18.0859 174.578 17.5234C174.109 16.9609 173.508 16.5234 172.773 16.2109C172.039 15.8984 171.133 15.7422 170.055 15.7422Z" fill="white"/>
</svg>
