<svg width="1129" height="351" viewBox="0 0 1129 351" fill="none" xmlns="http://www.w3.org/2000/svg">
<rect x="0.5" y="59.5312" width="1128" height="191" fill="white"/>
<path d="M502.953 141.719H510.016V150.203C510.578 149.932 511.156 149.724 511.75 149.578C512.344 149.432 512.953 149.359 513.578 149.359C514.776 149.359 515.885 149.583 516.906 150.031C517.927 150.479 518.807 151.089 519.547 151.859C520.286 152.63 520.865 153.531 521.281 154.562C521.708 155.594 521.922 156.688 521.922 157.844C521.922 159.01 521.714 160.109 521.297 161.141C520.891 162.172 520.318 163.073 519.578 163.844C518.839 164.604 517.958 165.208 516.938 165.656C515.917 166.094 514.797 166.312 513.578 166.312C512.922 166.312 512.297 166.25 511.703 166.125C511.109 166 510.547 165.823 510.016 165.594V166.031H505.219V146H502.953V141.719ZM513.25 153.672C512.562 153.672 511.943 153.828 511.391 154.141C510.849 154.453 510.391 154.901 510.016 155.484V160.328C510.349 160.828 510.792 161.234 511.344 161.547C511.906 161.849 512.531 162 513.219 162C513.75 162 514.255 161.906 514.734 161.719C515.214 161.521 515.63 161.245 515.984 160.891C516.349 160.526 516.635 160.094 516.844 159.594C517.052 159.083 517.156 158.51 517.156 157.875C517.156 157.229 517.052 156.646 516.844 156.125C516.635 155.604 516.354 155.161 516 154.797C515.646 154.432 515.229 154.156 514.75 153.969C514.281 153.771 513.781 153.672 513.25 153.672Z" fill="#03BF62"/>
<path d="M523.797 141.719H531.094V151.344C531.708 150.781 532.38 150.344 533.109 150.031C533.849 149.708 534.661 149.547 535.547 149.547C537.495 149.547 538.984 150.094 540.016 151.188C541.047 152.271 541.562 153.859 541.562 155.953V161.75H543.938V166.031H536.703V157.047C536.703 156.141 536.479 155.427 536.031 154.906C535.583 154.385 535.005 154.125 534.297 154.125C533.828 154.125 533.318 154.255 532.766 154.516C532.214 154.776 531.656 155.156 531.094 155.656V161.75H533.469V166.031H523.797V161.75H526.297V146H523.797V141.719ZM555.641 164.531C555.026 165.104 554.344 165.573 553.594 165.938C552.854 166.302 552.01 166.484 551.062 166.484C550.271 166.484 549.542 166.359 548.875 166.109C548.219 165.859 547.651 165.521 547.172 165.094C546.693 164.656 546.318 164.151 546.047 163.578C545.786 163.005 545.656 162.396 545.656 161.75C545.656 161.062 545.755 160.453 545.953 159.922C546.161 159.391 546.432 158.932 546.766 158.547C547.109 158.151 547.505 157.823 547.953 157.562C548.411 157.292 548.885 157.078 549.375 156.922C549.875 156.755 550.38 156.641 550.891 156.578C551.411 156.505 551.906 156.469 552.375 156.469C553.125 156.469 553.755 156.495 554.266 156.547C554.776 156.589 555.24 156.651 555.656 156.734L555.672 155.406C555.672 154.833 555.589 154.339 555.422 153.922C555.255 153.495 555.021 153.146 554.719 152.875C554.417 152.594 554.052 152.385 553.625 152.25C553.208 152.115 552.74 152.047 552.219 152.047C551.729 152.047 551.26 152.083 550.812 152.156C550.365 152.219 549.943 152.307 549.547 152.422C549.161 152.526 548.802 152.651 548.469 152.797C548.146 152.932 547.87 153.078 547.641 153.234L546.688 151.219C547.073 150.969 547.495 150.74 547.953 150.531C548.411 150.312 548.891 150.13 549.391 149.984C549.901 149.828 550.417 149.708 550.938 149.625C551.469 149.531 551.99 149.484 552.5 149.484C553.438 149.484 554.281 149.599 555.031 149.828C555.781 150.047 556.417 150.391 556.938 150.859C557.458 151.328 557.859 151.927 558.141 152.656C558.422 153.375 558.562 154.24 558.562 155.25L558.547 163.344H560.344V166.031H555.641V164.531ZM551.703 164.047C552.089 164.047 552.474 164 552.859 163.906C553.245 163.812 553.609 163.688 553.953 163.531C554.297 163.365 554.615 163.177 554.906 162.969C555.198 162.75 555.443 162.526 555.641 162.297L555.656 158.641H552.281C551.719 158.641 551.203 158.703 550.734 158.828C550.276 158.953 549.875 159.135 549.531 159.375C549.198 159.615 548.938 159.911 548.75 160.266C548.562 160.62 548.469 161.026 548.469 161.484C548.469 161.911 548.547 162.286 548.703 162.609C548.859 162.922 549.078 163.188 549.359 163.406C549.651 163.615 549.995 163.776 550.391 163.891C550.786 163.995 551.224 164.047 551.703 164.047ZM575.266 153.266H572.297V152.266C571.953 152.266 571.599 152.333 571.234 152.469C570.88 152.594 570.547 152.792 570.234 153.062C569.922 153.323 569.646 153.661 569.406 154.078C569.177 154.484 569.01 154.969 568.906 155.531V163.344H571.656V166.031H563.625V163.344H565.859L565.875 152.531H563.625V149.844H568.797V152.078C568.984 151.745 569.193 151.438 569.422 151.156C569.661 150.865 569.922 150.615 570.203 150.406C570.495 150.188 570.812 150.021 571.156 149.906C571.51 149.781 571.891 149.719 572.297 149.719C572.839 149.719 573.349 149.719 573.828 149.719C574.307 149.719 574.786 149.729 575.266 149.75V153.266ZM583.312 149.844H587.109V152.203H583.281L583.234 161.547C583.234 162.182 583.307 162.698 583.453 163.094C583.599 163.49 583.833 163.766 584.156 163.922C584.479 164.068 584.844 164.141 585.25 164.141C585.688 164.141 586.073 164.104 586.406 164.031C586.74 163.948 587.104 163.812 587.5 163.625L588.172 165.578C587.672 165.839 587.146 166.042 586.594 166.188C586.042 166.344 585.391 166.422 584.641 166.422C583.932 166.422 583.312 166.333 582.781 166.156C582.26 165.99 581.818 165.703 581.453 165.297C581.099 164.891 580.833 164.349 580.656 163.672C580.479 162.984 580.391 162.13 580.391 161.109L580.438 152.203H577.859V149.844H580.469V145.969L583.312 144.625V149.844ZM593.281 158.312C593.281 158.771 593.312 159.193 593.375 159.578C593.448 159.953 593.547 160.312 593.672 160.656C594.057 161.698 594.672 162.484 595.516 163.016C596.37 163.536 597.333 163.797 598.406 163.797C599.25 163.797 600.068 163.682 600.859 163.453C601.661 163.214 602.5 162.844 603.375 162.344L604.547 164.328C603.484 165.057 602.417 165.599 601.344 165.953C600.271 166.307 599.156 166.484 598 166.484C596.906 166.484 595.891 166.302 594.953 165.938C594.026 165.573 593.224 165.031 592.547 164.312C591.88 163.594 591.354 162.698 590.969 161.625C590.594 160.552 590.406 159.302 590.406 157.875C590.406 156.719 590.568 155.63 590.891 154.609C591.214 153.578 591.693 152.682 592.328 151.922C592.974 151.151 593.771 150.542 594.719 150.094C595.667 149.646 596.771 149.422 598.031 149.422C599.25 149.422 600.266 149.609 601.078 149.984C601.901 150.349 602.568 150.839 603.078 151.453C603.599 152.057 603.99 152.75 604.25 153.531C604.521 154.312 604.708 155.109 604.812 155.922C604.865 156.318 604.896 156.719 604.906 157.125C604.927 157.531 604.938 157.927 604.938 158.312H593.281ZM597.828 151.859C597.151 151.859 596.557 151.958 596.047 152.156C595.547 152.344 595.12 152.62 594.766 152.984C594.411 153.339 594.125 153.776 593.906 154.297C593.698 154.818 593.542 155.401 593.438 156.047H601.828C601.786 155.443 601.688 154.885 601.531 154.375C601.385 153.865 601.156 153.422 600.844 153.047C600.531 152.672 600.13 152.38 599.641 152.172C599.151 151.964 598.547 151.859 597.828 151.859ZM611.656 158.312C611.656 158.771 611.688 159.193 611.75 159.578C611.823 159.953 611.922 160.312 612.047 160.656C612.432 161.698 613.047 162.484 613.891 163.016C614.745 163.536 615.708 163.797 616.781 163.797C617.625 163.797 618.443 163.682 619.234 163.453C620.036 163.214 620.875 162.844 621.75 162.344L622.922 164.328C621.859 165.057 620.792 165.599 619.719 165.953C618.646 166.307 617.531 166.484 616.375 166.484C615.281 166.484 614.266 166.302 613.328 165.938C612.401 165.573 611.599 165.031 610.922 164.312C610.255 163.594 609.729 162.698 609.344 161.625C608.969 160.552 608.781 159.302 608.781 157.875C608.781 156.719 608.943 155.63 609.266 154.609C609.589 153.578 610.068 152.682 610.703 151.922C611.349 151.151 612.146 150.542 613.094 150.094C614.042 149.646 615.146 149.422 616.406 149.422C617.625 149.422 618.641 149.609 619.453 149.984C620.276 150.349 620.943 150.839 621.453 151.453C621.974 152.057 622.365 152.75 622.625 153.531C622.896 154.312 623.083 155.109 623.188 155.922C623.24 156.318 623.271 156.719 623.281 157.125C623.302 157.531 623.312 157.927 623.312 158.312H611.656ZM616.203 151.859C615.526 151.859 614.932 151.958 614.422 152.156C613.922 152.344 613.495 152.62 613.141 152.984C612.786 153.339 612.5 153.776 612.281 154.297C612.073 154.818 611.917 155.401 611.812 156.047H620.203C620.161 155.443 620.062 154.885 619.906 154.375C619.76 153.865 619.531 153.422 619.219 153.047C618.906 152.672 618.505 152.38 618.016 152.172C617.526 151.964 616.922 151.859 616.203 151.859Z" fill="black"/>
<path d="M922.844 214.173H926.126V220.091C926.555 219.759 927.024 219.496 927.532 219.3C928.04 219.105 928.564 219.007 929.104 219.007C929.768 219.007 930.377 219.131 930.93 219.378C931.484 219.626 931.959 219.974 932.356 220.423C932.76 220.873 933.072 221.413 933.294 222.044C933.515 222.669 933.626 223.363 933.626 224.125C933.626 224.938 933.502 225.677 933.255 226.341C933.007 226.999 932.662 227.565 932.219 228.041C931.783 228.516 931.262 228.884 930.657 229.144C930.052 229.398 929.387 229.525 928.665 229.525C928.163 229.525 927.691 229.453 927.249 229.31C926.813 229.16 926.438 228.968 926.126 228.734V229.369H924.309V215.853H922.844V214.173ZM928.626 220.609C928.15 220.609 927.695 220.707 927.259 220.902C926.822 221.097 926.445 221.361 926.126 221.693V227.132C926.334 227.347 926.64 227.539 927.044 227.708C927.447 227.871 927.955 227.953 928.567 227.953C928.984 227.953 929.384 227.875 929.768 227.718C930.152 227.562 930.491 227.328 930.784 227.015C931.077 226.696 931.311 226.302 931.487 225.833C931.663 225.365 931.751 224.818 931.751 224.193C931.751 223.62 931.666 223.112 931.497 222.669C931.334 222.227 931.109 221.852 930.823 221.546C930.543 221.24 930.214 221.009 929.837 220.853C929.459 220.69 929.055 220.609 928.626 220.609ZM935.647 214.173H938.85V220.365H938.909C939.091 220.182 939.3 220.013 939.534 219.857C939.775 219.694 940.025 219.554 940.286 219.437C940.546 219.32 940.816 219.229 941.096 219.164C941.376 219.098 941.669 219.066 941.975 219.066C942.516 219.066 943.004 219.141 943.44 219.291C943.876 219.44 944.247 219.668 944.553 219.974C944.859 220.28 945.094 220.674 945.257 221.156C945.426 221.631 945.51 222.194 945.51 222.845V227.689H947.034V229.369H942.229V227.689H943.616V223.07C943.616 222.295 943.417 221.709 943.02 221.312C942.63 220.908 942.066 220.707 941.331 220.707C940.914 220.707 940.491 220.807 940.061 221.009C939.632 221.205 939.228 221.452 938.85 221.751V227.689H940.315V229.369H935.51V227.689H937.034V215.853H935.647V214.173ZM954.68 228.431C954.296 228.789 953.87 229.082 953.401 229.31C952.939 229.538 952.412 229.652 951.819 229.652C951.324 229.652 950.869 229.574 950.452 229.417C950.042 229.261 949.687 229.05 949.387 228.783C949.088 228.509 948.854 228.194 948.684 227.835C948.522 227.477 948.44 227.097 948.44 226.693C948.44 226.263 948.502 225.882 948.626 225.55C948.756 225.218 948.925 224.932 949.134 224.691C949.348 224.444 949.596 224.238 949.876 224.076C950.162 223.906 950.458 223.773 950.764 223.675C951.077 223.571 951.393 223.5 951.712 223.46C952.037 223.415 952.346 223.392 952.639 223.392C953.108 223.392 953.502 223.408 953.821 223.441C954.14 223.467 954.43 223.506 954.69 223.558L954.7 222.728C954.7 222.37 954.648 222.061 954.544 221.8C954.44 221.533 954.293 221.315 954.104 221.146C953.915 220.97 953.688 220.84 953.421 220.755C953.16 220.671 952.867 220.628 952.542 220.628C952.236 220.628 951.943 220.651 951.663 220.697C951.383 220.736 951.119 220.791 950.872 220.863C950.631 220.928 950.406 221.006 950.198 221.097C949.996 221.182 949.824 221.273 949.68 221.371L949.085 220.111C949.326 219.955 949.589 219.811 949.876 219.681C950.162 219.544 950.462 219.431 950.774 219.339C951.093 219.242 951.415 219.167 951.741 219.115C952.073 219.056 952.399 219.027 952.718 219.027C953.303 219.027 953.831 219.098 954.3 219.242C954.768 219.378 955.165 219.593 955.491 219.886C955.816 220.179 956.067 220.554 956.243 221.009C956.419 221.458 956.507 221.999 956.507 222.63L956.497 227.689H957.62V229.369H954.68V228.431ZM952.219 228.128C952.46 228.128 952.701 228.099 952.942 228.041C953.183 227.982 953.411 227.904 953.626 227.806C953.841 227.702 954.039 227.585 954.221 227.455C954.404 227.318 954.557 227.178 954.68 227.035L954.69 224.75H952.581C952.229 224.75 951.907 224.789 951.614 224.867C951.328 224.945 951.077 225.059 950.862 225.208C950.654 225.358 950.491 225.544 950.374 225.765C950.257 225.986 950.198 226.24 950.198 226.527C950.198 226.794 950.247 227.028 950.344 227.23C950.442 227.425 950.579 227.591 950.755 227.728C950.937 227.858 951.152 227.959 951.399 228.031C951.647 228.096 951.92 228.128 952.219 228.128ZM966.946 221.39H965.091V220.765C964.876 220.765 964.654 220.807 964.427 220.892C964.205 220.97 963.997 221.094 963.802 221.263C963.606 221.426 963.434 221.638 963.284 221.898C963.141 222.152 963.037 222.455 962.971 222.806V227.689H964.69V229.369H959.671V227.689H961.067L961.077 220.931H959.671V219.251H962.903V220.648C963.02 220.44 963.15 220.248 963.294 220.072C963.443 219.889 963.606 219.733 963.782 219.603C963.964 219.466 964.163 219.362 964.378 219.291C964.599 219.212 964.837 219.173 965.091 219.173C965.429 219.173 965.748 219.173 966.048 219.173C966.347 219.173 966.647 219.18 966.946 219.193V221.39ZM971.975 219.251H974.348V220.726H971.956L971.927 226.566C971.927 226.963 971.972 227.285 972.063 227.533C972.154 227.78 972.301 227.953 972.503 228.05C972.705 228.141 972.932 228.187 973.186 228.187C973.46 228.187 973.701 228.164 973.909 228.119C974.117 228.067 974.345 227.982 974.593 227.865L975.012 229.085C974.7 229.248 974.371 229.375 974.026 229.466C973.681 229.564 973.274 229.613 972.805 229.613C972.363 229.613 971.975 229.557 971.643 229.447C971.318 229.343 971.041 229.164 970.813 228.91C970.592 228.656 970.426 228.317 970.315 227.894C970.205 227.464 970.149 226.931 970.149 226.292L970.178 220.726H968.567V219.251H970.198V216.83L971.975 215.99V219.251ZM978.206 224.544C978.206 224.831 978.225 225.095 978.264 225.335C978.31 225.57 978.372 225.794 978.45 226.009C978.691 226.66 979.075 227.152 979.602 227.484C980.136 227.809 980.738 227.972 981.409 227.972C981.936 227.972 982.447 227.901 982.942 227.757C983.443 227.608 983.968 227.376 984.514 227.064L985.247 228.304C984.583 228.76 983.915 229.098 983.245 229.32C982.574 229.541 981.878 229.652 981.155 229.652C980.471 229.652 979.837 229.538 979.251 229.31C978.671 229.082 978.17 228.744 977.747 228.294C977.33 227.845 977.001 227.285 976.76 226.615C976.526 225.944 976.409 225.163 976.409 224.271C976.409 223.548 976.51 222.868 976.712 222.23C976.913 221.585 977.213 221.026 977.61 220.55C978.014 220.069 978.512 219.688 979.104 219.408C979.697 219.128 980.387 218.988 981.175 218.988C981.936 218.988 982.571 219.105 983.079 219.339C983.593 219.567 984.01 219.873 984.329 220.257C984.654 220.635 984.899 221.068 985.061 221.556C985.231 222.044 985.348 222.542 985.413 223.05C985.445 223.298 985.465 223.548 985.471 223.802C985.484 224.056 985.491 224.304 985.491 224.544H978.206ZM981.048 220.511C980.624 220.511 980.253 220.573 979.934 220.697C979.622 220.814 979.355 220.986 979.134 221.214C978.912 221.436 978.733 221.709 978.596 222.035C978.466 222.36 978.369 222.725 978.303 223.128H983.548C983.522 222.751 983.46 222.403 983.362 222.083C983.271 221.764 983.128 221.488 982.932 221.253C982.737 221.019 982.486 220.837 982.18 220.707C981.874 220.576 981.497 220.511 981.048 220.511ZM989.69 224.544C989.69 224.831 989.71 225.095 989.749 225.335C989.794 225.57 989.856 225.794 989.934 226.009C990.175 226.66 990.559 227.152 991.087 227.484C991.621 227.809 992.223 227.972 992.893 227.972C993.421 227.972 993.932 227.901 994.427 227.757C994.928 227.608 995.452 227.376 995.999 227.064L996.731 228.304C996.067 228.76 995.4 229.098 994.729 229.32C994.059 229.541 993.362 229.652 992.639 229.652C991.956 229.652 991.321 229.538 990.735 229.31C990.156 229.082 989.654 228.744 989.231 228.294C988.815 227.845 988.486 227.285 988.245 226.615C988.01 225.944 987.893 225.163 987.893 224.271C987.893 223.548 987.994 222.868 988.196 222.23C988.398 221.585 988.697 221.026 989.094 220.55C989.498 220.069 989.996 219.688 990.589 219.408C991.181 219.128 991.871 218.988 992.659 218.988C993.421 218.988 994.055 219.105 994.563 219.339C995.078 219.567 995.494 219.873 995.813 220.257C996.139 220.635 996.383 221.068 996.546 221.556C996.715 222.044 996.832 222.542 996.897 223.05C996.93 223.298 996.949 223.548 996.956 223.802C996.969 224.056 996.975 224.304 996.975 224.544H989.69ZM992.532 220.511C992.109 220.511 991.738 220.573 991.419 220.697C991.106 220.814 990.839 220.986 990.618 221.214C990.397 221.436 990.218 221.709 990.081 222.035C989.951 222.36 989.853 222.725 989.788 223.128H995.032C995.006 222.751 994.944 222.403 994.846 222.083C994.755 221.764 994.612 221.488 994.417 221.253C994.221 221.019 993.971 220.837 993.665 220.707C993.359 220.576 992.981 220.511 992.532 220.511ZM999.417 228.187C999.417 228.018 999.449 227.858 999.514 227.708C999.586 227.552 999.68 227.419 999.798 227.308C999.915 227.191 1000.05 227.1 1000.2 227.035C1000.35 226.963 1000.52 226.927 1000.7 226.927C1000.87 226.927 1001.02 226.963 1001.17 227.035C1001.33 227.1 1001.46 227.191 1001.57 227.308C1001.69 227.419 1001.78 227.552 1001.85 227.708C1001.92 227.858 1001.96 228.018 1001.96 228.187C1001.96 228.363 1001.92 228.529 1001.85 228.685C1001.78 228.841 1001.69 228.981 1001.57 229.105C1001.46 229.222 1001.33 229.313 1001.17 229.378C1001.02 229.45 1000.87 229.486 1000.7 229.486C1000.52 229.486 1000.35 229.45 1000.2 229.378C1000.05 229.313 999.915 229.222 999.798 229.105C999.68 228.981 999.586 228.841 999.514 228.685C999.449 228.529 999.417 228.363 999.417 228.187ZM1009.86 228.431C1009.47 228.789 1009.05 229.082 1008.58 229.31C1008.11 229.538 1007.59 229.652 1006.99 229.652C1006.5 229.652 1006.04 229.574 1005.63 229.417C1005.22 229.261 1004.86 229.05 1004.56 228.783C1004.26 228.509 1004.03 228.194 1003.86 227.835C1003.7 227.477 1003.62 227.097 1003.62 226.693C1003.62 226.263 1003.68 225.882 1003.8 225.55C1003.93 225.218 1004.1 224.932 1004.31 224.691C1004.52 224.444 1004.77 224.238 1005.05 224.076C1005.34 223.906 1005.63 223.773 1005.94 223.675C1006.25 223.571 1006.57 223.5 1006.89 223.46C1007.21 223.415 1007.52 223.392 1007.82 223.392C1008.28 223.392 1008.68 223.408 1009 223.441C1009.32 223.467 1009.61 223.506 1009.87 223.558L1009.88 222.728C1009.88 222.37 1009.82 222.061 1009.72 221.8C1009.62 221.533 1009.47 221.315 1009.28 221.146C1009.09 220.97 1008.86 220.84 1008.6 220.755C1008.34 220.671 1008.04 220.628 1007.72 220.628C1007.41 220.628 1007.12 220.651 1006.84 220.697C1006.56 220.736 1006.3 220.791 1006.05 220.863C1005.81 220.928 1005.58 221.006 1005.37 221.097C1005.17 221.182 1005 221.273 1004.86 221.371L1004.26 220.111C1004.5 219.955 1004.77 219.811 1005.05 219.681C1005.34 219.544 1005.64 219.431 1005.95 219.339C1006.27 219.242 1006.59 219.167 1006.92 219.115C1007.25 219.056 1007.57 219.027 1007.89 219.027C1008.48 219.027 1009.01 219.098 1009.48 219.242C1009.94 219.378 1010.34 219.593 1010.67 219.886C1010.99 220.179 1011.24 220.554 1011.42 221.009C1011.59 221.458 1011.68 221.999 1011.68 222.63L1011.67 227.689H1012.8V229.369H1009.86V228.431ZM1007.4 228.128C1007.64 228.128 1007.88 228.099 1008.12 228.041C1008.36 227.982 1008.59 227.904 1008.8 227.806C1009.02 227.702 1009.21 227.585 1009.4 227.455C1009.58 227.318 1009.73 227.178 1009.86 227.035L1009.87 224.75H1007.76C1007.41 224.75 1007.08 224.789 1006.79 224.867C1006.5 224.945 1006.25 225.059 1006.04 225.208C1005.83 225.358 1005.67 225.544 1005.55 225.765C1005.43 225.986 1005.37 226.24 1005.37 226.527C1005.37 226.794 1005.42 227.028 1005.52 227.23C1005.62 227.425 1005.75 227.591 1005.93 227.728C1006.11 227.858 1006.33 227.959 1006.57 228.031C1006.82 228.096 1007.1 228.128 1007.4 228.128ZM1014.77 219.251H1018.07V227.689H1019.59V229.369H1014.79V227.689H1016.23V220.931H1014.77V219.251ZM1015.89 215.667C1015.89 215.498 1015.92 215.339 1015.99 215.189C1016.06 215.033 1016.15 214.899 1016.26 214.789C1016.38 214.671 1016.52 214.58 1016.67 214.515C1016.83 214.444 1016.99 214.408 1017.17 214.408C1017.34 214.408 1017.5 214.444 1017.65 214.515C1017.81 214.58 1017.94 214.671 1018.05 214.789C1018.17 214.899 1018.26 215.033 1018.32 215.189C1018.39 215.339 1018.43 215.498 1018.43 215.667C1018.43 215.843 1018.39 216.009 1018.32 216.166C1018.26 216.322 1018.17 216.462 1018.05 216.585C1017.94 216.703 1017.81 216.797 1017.65 216.869C1017.5 216.934 1017.34 216.966 1017.17 216.966C1016.99 216.966 1016.83 216.934 1016.67 216.869C1016.52 216.797 1016.38 216.703 1016.26 216.585C1016.15 216.462 1016.06 216.322 1015.99 216.166C1015.92 216.009 1015.89 215.843 1015.89 215.667ZM1026.52 214.046H1028.22L1022.36 229.652H1020.66L1026.52 214.046ZM1036.86 221.947C1036.58 221.458 1036.24 221.1 1035.81 220.873C1035.4 220.645 1034.91 220.531 1034.36 220.531C1033.93 220.531 1033.54 220.619 1033.17 220.794C1032.8 220.97 1032.47 221.221 1032.19 221.546C1031.92 221.872 1031.7 222.269 1031.54 222.738C1031.38 223.2 1031.3 223.718 1031.3 224.291C1031.3 224.857 1031.38 225.368 1031.54 225.824C1031.7 226.279 1031.92 226.67 1032.2 226.996C1032.48 227.315 1032.8 227.562 1033.17 227.738C1033.54 227.907 1033.93 227.992 1034.36 227.992C1034.98 227.992 1035.53 227.842 1035.99 227.542C1036.45 227.236 1036.82 226.791 1037.09 226.205L1038.6 226.947C1038.4 227.363 1038.16 227.738 1037.87 228.07C1037.59 228.402 1037.26 228.685 1036.9 228.919C1036.54 229.154 1036.14 229.333 1035.71 229.457C1035.28 229.587 1034.82 229.652 1034.34 229.652C1033.64 229.652 1032.98 229.522 1032.39 229.261C1031.79 228.994 1031.28 228.623 1030.84 228.148C1030.41 227.673 1030.08 227.106 1029.84 226.449C1029.6 225.791 1029.48 225.072 1029.48 224.291C1029.48 223.509 1029.6 222.79 1029.86 222.132C1030.11 221.475 1030.46 220.912 1030.9 220.443C1031.34 219.968 1031.86 219.597 1032.45 219.33C1033.05 219.063 1033.68 218.929 1034.36 218.929C1035 218.929 1035.6 219.04 1036.16 219.261C1036.74 219.483 1037.24 219.818 1037.67 220.267H1038.69V221.947H1036.86ZM1046.42 228.431C1046.03 228.789 1045.61 229.082 1045.14 229.31C1044.68 229.538 1044.15 229.652 1043.56 229.652C1043.06 229.652 1042.61 229.574 1042.19 229.417C1041.78 229.261 1041.43 229.05 1041.13 228.783C1040.83 228.509 1040.59 228.194 1040.42 227.835C1040.26 227.477 1040.18 227.097 1040.18 226.693C1040.18 226.263 1040.24 225.882 1040.36 225.55C1040.49 225.218 1040.66 224.932 1040.87 224.691C1041.09 224.444 1041.33 224.238 1041.61 224.076C1041.9 223.906 1042.2 223.773 1042.5 223.675C1042.82 223.571 1043.13 223.5 1043.45 223.46C1043.78 223.415 1044.08 223.392 1044.38 223.392C1044.85 223.392 1045.24 223.408 1045.56 223.441C1045.88 223.467 1046.17 223.506 1046.43 223.558L1046.44 222.728C1046.44 222.37 1046.39 222.061 1046.28 221.8C1046.18 221.533 1046.03 221.315 1045.84 221.146C1045.65 220.97 1045.43 220.84 1045.16 220.755C1044.9 220.671 1044.61 220.628 1044.28 220.628C1043.97 220.628 1043.68 220.651 1043.4 220.697C1043.12 220.736 1042.86 220.791 1042.61 220.863C1042.37 220.928 1042.14 221.006 1041.94 221.097C1041.73 221.182 1041.56 221.273 1041.42 221.371L1040.82 220.111C1041.06 219.955 1041.33 219.811 1041.61 219.681C1041.9 219.544 1042.2 219.431 1042.51 219.339C1042.83 219.242 1043.15 219.167 1043.48 219.115C1043.81 219.056 1044.14 219.027 1044.46 219.027C1045.04 219.027 1045.57 219.098 1046.04 219.242C1046.51 219.378 1046.9 219.593 1047.23 219.886C1047.55 220.179 1047.81 220.554 1047.98 221.009C1048.16 221.458 1048.24 221.999 1048.24 222.63L1048.24 227.689H1049.36V229.369H1046.42V228.431ZM1043.96 228.128C1044.2 228.128 1044.44 228.099 1044.68 228.041C1044.92 227.982 1045.15 227.904 1045.36 227.806C1045.58 227.702 1045.78 227.585 1045.96 227.455C1046.14 227.318 1046.3 227.178 1046.42 227.035L1046.43 224.75H1044.32C1043.97 224.75 1043.65 224.789 1043.35 224.867C1043.07 224.945 1042.82 225.059 1042.6 225.208C1042.39 225.358 1042.23 225.544 1042.11 225.765C1041.99 225.986 1041.94 226.24 1041.94 226.527C1041.94 226.794 1041.99 227.028 1042.08 227.23C1042.18 227.425 1042.32 227.591 1042.49 227.728C1042.68 227.858 1042.89 227.959 1043.14 228.031C1043.38 228.096 1043.66 228.128 1043.96 228.128ZM1058.68 221.39H1056.83V220.765C1056.61 220.765 1056.39 220.807 1056.16 220.892C1055.94 220.97 1055.74 221.094 1055.54 221.263C1055.34 221.426 1055.17 221.638 1055.02 221.898C1054.88 222.152 1054.77 222.455 1054.71 222.806V227.689H1056.43V229.369H1051.41V227.689H1052.81L1052.82 220.931H1051.41V219.251H1054.64V220.648C1054.76 220.44 1054.89 220.248 1055.03 220.072C1055.18 219.889 1055.34 219.733 1055.52 219.603C1055.7 219.466 1055.9 219.362 1056.12 219.291C1056.34 219.212 1056.57 219.173 1056.83 219.173C1057.17 219.173 1057.49 219.173 1057.79 219.173C1058.09 219.173 1058.38 219.18 1058.68 219.193V221.39ZM1062.5 224.544C1062.5 224.831 1062.52 225.095 1062.56 225.335C1062.61 225.57 1062.67 225.794 1062.75 226.009C1062.99 226.66 1063.37 227.152 1063.9 227.484C1064.43 227.809 1065.04 227.972 1065.71 227.972C1066.23 227.972 1066.74 227.901 1067.24 227.757C1067.74 227.608 1068.26 227.376 1068.81 227.064L1069.54 228.304C1068.88 228.76 1068.21 229.098 1067.54 229.32C1066.87 229.541 1066.17 229.652 1065.45 229.652C1064.77 229.652 1064.13 229.538 1063.55 229.31C1062.97 229.082 1062.47 228.744 1062.04 228.294C1061.63 227.845 1061.3 227.285 1061.06 226.615C1060.82 225.944 1060.71 225.163 1060.71 224.271C1060.71 223.548 1060.81 222.868 1061.01 222.23C1061.21 221.585 1061.51 221.026 1061.91 220.55C1062.31 220.069 1062.81 219.688 1063.4 219.408C1063.99 219.128 1064.68 218.988 1065.47 218.988C1066.23 218.988 1066.87 219.105 1067.38 219.339C1067.89 219.567 1068.31 219.873 1068.63 220.257C1068.95 220.635 1069.2 221.068 1069.36 221.556C1069.53 222.044 1069.64 222.542 1069.71 223.05C1069.74 223.298 1069.76 223.548 1069.77 223.802C1069.78 224.056 1069.79 224.304 1069.79 224.544H1062.5ZM1065.34 220.511C1064.92 220.511 1064.55 220.573 1064.23 220.697C1063.92 220.814 1063.65 220.986 1063.43 221.214C1063.21 221.436 1063.03 221.709 1062.89 222.035C1062.76 222.36 1062.67 222.725 1062.6 223.128H1067.84C1067.82 222.751 1067.76 222.403 1067.66 222.083C1067.57 221.764 1067.42 221.488 1067.23 221.253C1067.03 221.019 1066.78 220.837 1066.48 220.707C1066.17 220.576 1065.79 220.511 1065.34 220.511ZM1073.99 224.544C1073.99 224.831 1074.01 225.095 1074.05 225.335C1074.09 225.57 1074.15 225.794 1074.23 226.009C1074.47 226.66 1074.86 227.152 1075.38 227.484C1075.92 227.809 1076.52 227.972 1077.19 227.972C1077.72 227.972 1078.23 227.901 1078.72 227.757C1079.22 227.608 1079.75 227.376 1080.3 227.064L1081.03 228.304C1080.36 228.76 1079.7 229.098 1079.03 229.32C1078.36 229.541 1077.66 229.652 1076.94 229.652C1076.25 229.652 1075.62 229.538 1075.03 229.31C1074.45 229.082 1073.95 228.744 1073.53 228.294C1073.11 227.845 1072.78 227.285 1072.54 226.615C1072.31 225.944 1072.19 225.163 1072.19 224.271C1072.19 223.548 1072.29 222.868 1072.49 222.23C1072.69 221.585 1072.99 221.026 1073.39 220.55C1073.8 220.069 1074.29 219.688 1074.89 219.408C1075.48 219.128 1076.17 218.988 1076.96 218.988C1077.72 218.988 1078.35 219.105 1078.86 219.339C1079.37 219.567 1079.79 219.873 1080.11 220.257C1080.44 220.635 1080.68 221.068 1080.84 221.556C1081.01 222.044 1081.13 222.542 1081.19 223.05C1081.23 223.298 1081.25 223.548 1081.25 223.802C1081.27 224.056 1081.27 224.304 1081.27 224.544H1073.99ZM1076.83 220.511C1076.41 220.511 1076.03 220.573 1075.72 220.697C1075.4 220.814 1075.14 220.986 1074.91 221.214C1074.69 221.436 1074.51 221.709 1074.38 222.035C1074.25 222.36 1074.15 222.725 1074.08 223.128H1079.33C1079.3 222.751 1079.24 222.403 1079.14 222.083C1079.05 221.764 1078.91 221.488 1078.71 221.253C1078.52 221.019 1078.27 220.837 1077.96 220.707C1077.66 220.576 1077.28 220.511 1076.83 220.511ZM1091.03 221.39H1089.17V220.765C1088.96 220.765 1088.74 220.807 1088.51 220.892C1088.29 220.97 1088.08 221.094 1087.88 221.263C1087.69 221.426 1087.52 221.638 1087.37 221.898C1087.22 222.152 1087.12 222.455 1087.05 222.806V227.689H1088.77V229.369H1083.75V227.689H1085.15L1085.16 220.931H1083.75V219.251H1086.99V220.648C1087.1 220.44 1087.23 220.248 1087.38 220.072C1087.53 219.889 1087.69 219.733 1087.86 219.603C1088.05 219.466 1088.24 219.362 1088.46 219.291C1088.68 219.212 1088.92 219.173 1089.17 219.173C1089.51 219.173 1089.83 219.173 1090.13 219.173C1090.43 219.173 1090.73 219.18 1091.03 219.193V221.39ZM1098.97 221.966C1098.97 221.693 1098.9 221.462 1098.77 221.273C1098.65 221.078 1098.49 220.921 1098.28 220.804C1098.08 220.681 1097.86 220.593 1097.61 220.541C1097.36 220.482 1097.12 220.453 1096.89 220.453C1096.63 220.453 1096.39 220.482 1096.16 220.541C1095.95 220.599 1095.76 220.684 1095.61 220.794C1095.45 220.905 1095.33 221.042 1095.24 221.205C1095.15 221.361 1095.11 221.537 1095.11 221.732C1095.11 222.07 1095.21 222.341 1095.41 222.542C1095.62 222.738 1095.97 222.92 1096.45 223.089L1098.39 223.773C1099.22 224.053 1099.83 224.434 1100.22 224.916C1100.6 225.397 1100.79 225.973 1100.79 226.644C1100.79 227.093 1100.7 227.507 1100.52 227.884C1100.34 228.255 1100.09 228.574 1099.76 228.841C1099.43 229.102 1099.04 229.304 1098.58 229.447C1098.11 229.597 1097.6 229.671 1097.03 229.671C1096.25 229.671 1095.6 229.544 1095.11 229.291C1094.62 229.037 1094.23 228.701 1093.97 228.285H1092.95V226.605H1094.97C1094.97 226.885 1095.03 227.126 1095.15 227.328C1095.27 227.523 1095.43 227.682 1095.63 227.806C1095.83 227.93 1096.05 228.021 1096.3 228.08C1096.56 228.138 1096.81 228.167 1097.07 228.167C1097.33 228.167 1097.57 228.138 1097.81 228.08C1098.04 228.014 1098.24 227.923 1098.42 227.806C1098.6 227.682 1098.75 227.536 1098.85 227.367C1098.95 227.197 1099.01 227.005 1099.01 226.791C1099.01 226.465 1098.9 226.188 1098.68 225.96C1098.48 225.733 1098.12 225.528 1097.61 225.345L1095.68 224.623C1094.89 224.343 1094.3 223.988 1093.92 223.558C1093.54 223.122 1093.35 222.578 1093.35 221.927C1093.35 221.498 1093.43 221.1 1093.59 220.736C1093.75 220.371 1093.98 220.059 1094.28 219.798C1094.59 219.531 1094.96 219.323 1095.39 219.173C1095.83 219.024 1096.33 218.949 1096.89 218.949C1097.61 218.949 1098.22 219.05 1098.7 219.251C1099.19 219.453 1099.63 219.798 1100.02 220.287H1100.97V221.966H1098.97Z" fill="black"/>
<g clip-path="url(#clip0_15_44)">
<path d="M164.5 316.887C237.92 316.887 297.439 253.376 297.439 175.031C297.439 96.6863 237.92 33.1752 164.5 33.1752C91.0796 33.1752 31.5606 96.6863 31.5606 175.031C31.5606 253.376 91.0796 316.887 164.5 316.887Z" fill="url(#paint0_linear_15_44)" fill-opacity="0.06"/>
<path d="M164.5 317.219C238.092 317.219 297.75 253.559 297.75 175.031C297.75 96.5033 238.092 32.8438 164.5 32.8438C90.9081 32.8438 31.25 96.5033 31.25 175.031C31.25 253.559 90.9081 317.219 164.5 317.219Z" stroke="url(#paint1_linear_15_44)" stroke-opacity="0.15"/>
<g filter="url(#filter0_d_15_44)">
<path d="M164.5 282.582C220.165 282.582 265.29 234.43 265.29 175.031C265.29 115.633 220.165 67.4805 164.5 67.4805C108.835 67.4805 63.7096 115.633 63.7096 175.031C63.7096 234.43 108.835 282.582 164.5 282.582Z" fill="url(#paint2_linear_15_44)" fill-opacity="0.05"/>
<path d="M164.5 282.913C220.337 282.913 265.601 234.613 265.601 175.031C265.601 115.45 220.337 67.149 164.5 67.149C108.663 67.149 63.399 115.45 63.399 175.031C63.399 234.613 108.663 282.913 164.5 282.913Z" stroke="url(#paint3_linear_15_44)" stroke-opacity="0.15"/>
</g>
<g filter="url(#filter1_d_15_44)">
<path d="M164.501 248.277C202.411 248.277 233.143 215.484 233.143 175.031C233.143 134.578 202.411 101.785 164.501 101.785C126.591 101.785 95.8585 134.578 95.8585 175.031C95.8585 215.484 126.591 248.277 164.501 248.277Z" fill="url(#paint4_linear_15_44)" fill-opacity="0.04"/>
<path d="M164.501 248.609C202.582 248.609 233.453 215.667 233.453 175.031C233.453 134.395 202.582 101.454 164.501 101.454C126.419 101.454 95.5479 134.395 95.5479 175.031C95.5479 215.667 126.419 248.609 164.501 248.609Z" stroke="url(#paint5_linear_15_44)" stroke-opacity="0.15"/>
</g>
<g filter="url(#filter2_d_15_44)">
<path d="M164.5 215.826C185.614 215.826 202.731 197.562 202.731 175.031C202.731 152.501 185.614 134.236 164.5 134.236C143.386 134.236 126.269 152.501 126.269 175.031C126.269 197.562 143.386 215.826 164.5 215.826Z" fill="url(#paint6_linear_15_44)" fill-opacity="0.05"/>
<path d="M164.5 216.158C185.786 216.158 203.042 197.745 203.042 175.031C203.042 152.318 185.786 133.905 164.5 133.905C143.214 133.905 125.958 152.318 125.958 175.031C125.958 197.745 143.214 216.158 164.5 216.158Z" stroke="url(#paint7_linear_15_44)" stroke-opacity="0.15"/>
<path d="M144.962 161.242H150.259V167.605C150.68 167.402 151.114 167.246 151.559 167.137C152.005 167.027 152.462 166.972 152.93 166.972C153.829 166.972 154.661 167.14 155.427 167.476C156.192 167.812 156.852 168.269 157.407 168.847C157.962 169.426 158.395 170.101 158.708 170.875C159.028 171.648 159.188 172.469 159.188 173.336C159.188 174.211 159.032 175.035 158.719 175.808C158.415 176.582 157.985 177.258 157.43 177.836C156.876 178.406 156.216 178.859 155.45 179.195C154.684 179.523 153.844 179.687 152.93 179.687C152.438 179.687 151.969 179.64 151.524 179.547C151.079 179.453 150.657 179.32 150.259 179.148V179.476H146.661V164.453H144.962V161.242ZM152.684 170.207C152.169 170.207 151.704 170.324 151.29 170.558C150.884 170.793 150.54 171.129 150.259 171.566V175.199C150.509 175.574 150.841 175.879 151.255 176.113C151.677 176.34 152.145 176.453 152.661 176.453C153.059 176.453 153.438 176.383 153.798 176.242C154.157 176.094 154.469 175.887 154.735 175.621C155.009 175.347 155.223 175.023 155.38 174.648C155.536 174.265 155.614 173.836 155.614 173.359C155.614 172.875 155.536 172.437 155.38 172.047C155.223 171.656 155.012 171.324 154.747 171.051C154.481 170.777 154.169 170.57 153.809 170.43C153.458 170.281 153.083 170.207 152.684 170.207Z" fill="#03BF62"/>
<path d="M160.594 161.242H166.067V168.461C166.528 168.039 167.032 167.711 167.579 167.476C168.134 167.234 168.743 167.113 169.407 167.113C170.868 167.113 171.985 167.523 172.759 168.344C173.532 169.156 173.919 170.347 173.919 171.918V176.265H175.7V179.476H170.274V172.738C170.274 172.058 170.106 171.523 169.77 171.133C169.434 170.742 169.001 170.547 168.469 170.547C168.118 170.547 167.735 170.644 167.321 170.84C166.907 171.035 166.489 171.32 166.067 171.695V176.265H167.848V179.476H160.594V176.265H162.469V164.453H160.594V161.242Z" fill="black"/>
</g>
</g>
<defs>
<filter id="filter0_d_15_44" x="-37.101" y="-33.351" width="403.202" height="416.764" filterUnits="userSpaceOnUse" color-interpolation-filters="sRGB">
<feFlood flood-opacity="0" result="BackgroundImageFix"/>
<feColorMatrix in="SourceAlpha" type="matrix" values="0 0 0 0 0 0 0 0 0 0 0 0 0 0 0 0 0 0 127 0" result="hardAlpha"/>
<feOffset/>
<feGaussianBlur stdDeviation="50"/>
<feComposite in2="hardAlpha" operator="out"/>
<feColorMatrix type="matrix" values="0 0 0 0 0 0 0 0 0 0 0 0 0 0 0 0 0 0 0.1 0"/>
<feBlend mode="normal" in2="BackgroundImageFix" result="effect1_dropShadow_15_44"/>
<feBlend mode="normal" in="SourceGraphic" in2="effect1_dropShadow_15_44" result="shape"/>
</filter>
<filter id="filter1_d_15_44" x="-4.95206" y="0.953674" width="338.905" height="348.155" filterUnits="userSpaceOnUse" color-interpolation-filters="sRGB">
<feFlood flood-opacity="0" result="BackgroundImageFix"/>
<feColorMatrix in="SourceAlpha" type="matrix" values="0 0 0 0 0 0 0 0 0 0 0 0 0 0 0 0 0 0 127 0" result="hardAlpha"/>
<feOffset/>
<feGaussianBlur stdDeviation="50"/>
<feComposite in2="hardAlpha" operator="out"/>
<feColorMatrix type="matrix" values="0 0 0 0 0 0 0 0 0 0 0 0 0 0 0 0 0 0 0.08 0"/>
<feBlend mode="normal" in2="BackgroundImageFix" result="effect1_dropShadow_15_44"/>
<feBlend mode="normal" in="SourceGraphic" in2="effect1_dropShadow_15_44" result="shape"/>
</filter>
<filter id="filter2_d_15_44" x="75.4585" y="83.4046" width="178.083" height="183.253" filterUnits="userSpaceOnUse" color-interpolation-filters="sRGB">
<feFlood flood-opacity="0" result="BackgroundImageFix"/>
<feColorMatrix in="SourceAlpha" type="matrix" values="0 0 0 0 0 0 0 0 0 0 0 0 0 0 0 0 0 0 127 0" result="hardAlpha"/>
<feOffset/>
<feGaussianBlur stdDeviation="25"/>
<feComposite in2="hardAlpha" operator="out"/>
<feColorMatrix type="matrix" values="0 0 0 0 0 0 0 0 0 0 0 0 0 0 0 0 0 0 0.12 0"/>
<feBlend mode="normal" in2="BackgroundImageFix" result="effect1_dropShadow_15_44"/>
<feBlend mode="normal" in="SourceGraphic" in2="effect1_dropShadow_15_44" result="shape"/>
</filter>
<linearGradient id="paint0_linear_15_44" x1="164.5" y1="33.1752" x2="164.5" y2="316.887" gradientUnits="userSpaceOnUse">
<stop stop-color="white" stop-opacity="0.48"/>
<stop offset="0.5" stop-color="white"/>
<stop offset="1" stop-color="white" stop-opacity="0"/>
</linearGradient>
<linearGradient id="paint1_linear_15_44" x1="164.5" y1="33.1752" x2="164.5" y2="316.887" gradientUnits="userSpaceOnUse">
<stop stop-color="white" stop-opacity="0.4"/>
<stop offset="0.505208" stop-color="white"/>
<stop offset="1" stop-color="white" stop-opacity="0"/>
</linearGradient>
<linearGradient id="paint2_linear_15_44" x1="164.5" y1="67.4805" x2="164.5" y2="282.582" gradientUnits="userSpaceOnUse">
<stop stop-color="white" stop-opacity="0.48"/>
<stop offset="0.5" stop-color="white"/>
<stop offset="1" stop-color="white" stop-opacity="0"/>
</linearGradient>
<linearGradient id="paint3_linear_15_44" x1="164.5" y1="67.4805" x2="164.5" y2="282.582" gradientUnits="userSpaceOnUse">
<stop stop-color="white" stop-opacity="0.4"/>
<stop offset="0.505208" stop-color="white"/>
<stop offset="1" stop-color="white" stop-opacity="0"/>
</linearGradient>
<linearGradient id="paint4_linear_15_44" x1="164.501" y1="101.785" x2="164.501" y2="248.277" gradientUnits="userSpaceOnUse">
<stop stop-color="white" stop-opacity="0.48"/>
<stop offset="0.5" stop-color="white"/>
<stop offset="1" stop-color="white" stop-opacity="0"/>
</linearGradient>
<linearGradient id="paint5_linear_15_44" x1="164.501" y1="101.785" x2="164.501" y2="248.277" gradientUnits="userSpaceOnUse">
<stop stop-color="white" stop-opacity="0.4"/>
<stop offset="0.505208" stop-color="white"/>
<stop offset="1" stop-color="white" stop-opacity="0"/>
</linearGradient>
<linearGradient id="paint6_linear_15_44" x1="164.5" y1="134.236" x2="164.5" y2="215.826" gradientUnits="userSpaceOnUse">
<stop stop-color="white" stop-opacity="0.48"/>
<stop offset="0.5" stop-color="white"/>
<stop offset="1" stop-color="white" stop-opacity="0"/>
</linearGradient>
<linearGradient id="paint7_linear_15_44" x1="164.5" y1="134.236" x2="164.5" y2="215.826" gradientUnits="userSpaceOnUse">
<stop stop-color="white" stop-opacity="0.4"/>
<stop offset="0.505208" stop-color="white"/>
<stop offset="1" stop-color="white" stop-opacity="0"/>
</linearGradient>
<clipPath id="clip0_15_44">
<rect width="328" height="350" fill="white" transform="translate(0.5 0.03125)"/>
</clipPath>
</defs>
</svg>
